<?xml version="1.0" encoding="UTF-8"?>
<!-- Generator: visioncortex VTracer 0.6.12 -->
<svg version="1.1" xmlns="http://www.w3.org/2000/svg" width="1024" height="1024">
<path d="M0 0 C81.84 0 163.68 0 248 0 C248 19.1 246.85 31.35 238 48 C234.73 55.91 231.71 63.88 229 72 C227.35 73.65 225.7 75.3 224 77 C222.08 80.39 222.08 80.39 220.25 84.25 C215.12 94.83 209.84 105.31 203.75 115.38 C200.74 120.44 198.38 125.62 196 131 C194.05 134.94 192.07 138.87 190.07 142.79 C186.74 149.35 183.55 155.91 180.69 162.69 C178 169 178 169 175 174 C173.31 177.66 171.65 181.32 170 185 C169.49 186.09 169.49 186.09 166.94 191.62 C160.45 205.7 160.45 205.7 157.94 212.94 C156 218 156 218 153 220 C152.71 221.32 152.42 222.64 152.12 224 C150.86 229.61 148.57 233.86 146 239 C143.57 245.79 141.32 252.36 139.94 259.44 C139 264 139 264 137.12 267.69 C134.66 272.69 133.43 277.78 132.07 283.18 C130.53 288.67 128.29 293.78 126 299 C123.11 306.38 120.67 313.91 118.19 321.44 C107.55 353.45 107.55 353.45 105 356 C104.14 358.58 103.36 361.19 102.62 363.81 C102.18 365.34 101.74 366.88 101.29 368.45 C100.19 372.32 99.1 376.19 98 380.06 C96.17 385.48 94.13 389.27 91 394 C89.3 397.65 87.63 401.32 86 405 C83 411 83 411 81 413 C80.4 414.71 79.8 416.42 79.19 418.19 C77.22 423.42 75.3 426.6 72 431 C70.99 432.86 69.98 434.71 68.94 436.62 C66 442 66 442 62 447 C61.34 448.98 60.68 450.96 60 453 C56.66 460.25 52.66 466.53 48 473 C47.01 474.65 46.02 476.3 45 478 C44.34 478.33 43.68 478.66 43 479 C42.01 481.31 41.02 483.62 40 486 C34.86 491.23 32.21 492.94 25 495 C24.67 496.32 24.34 497.64 24 499 C19.35 501.79 16.07 502.94 10.88 504.19 C9.47 504.53 8.06 504.88 6.62 505.23 C3 506 3 506 0 506 C0 339.02 0 172.04 0 0 Z " fill="#ffffff" transform="translate(0,0)"/>
<path d="M0 0 C1.69 -0.01 3.38 -0.03 5.12 -0.04 C11.06 0.24 16.01 0.86 21 4.19 C23.31 4.85 25.62 5.51 28 6.19 C39.43 11.62 39.43 11.62 42 14.19 C43.38 14.62 44.76 15.05 46.19 15.5 C50.99 17.18 53.97 19.16 58 22.19 C60.99 23.87 63.99 25.54 67 27.19 C68.98 28.51 70.96 29.83 73 31.19 C74.42 32.12 75.85 33.04 77.31 34 C83.42 38.15 89.17 42.6 94.75 47.44 C98 50.19 98 50.19 103 53.19 C103.66 53.85 104.32 54.51 105 55.19 C106.2 55.6 107.39 56.01 108.62 56.44 C116.18 59.46 121.33 64.52 127 70.19 C127.83 70.68 127.83 70.68 132 73.19 C133.57 74.3 135.13 75.41 136.75 76.56 C142 80.19 142 80.19 146.88 82.88 C151 85.19 151 85.19 155 89.19 C157.31 90.18 159.62 91.17 162 92.19 C164.57 93.46 167.13 94.76 169.69 96.06 C174.67 98.58 179.58 100.85 184.75 103 C190 105.19 190 105.19 194 108.19 C196.81 109.09 199.65 109.92 202.5 110.69 C207.63 112.07 210.71 112.97 215 116.19 C217.83 117.11 220.69 117.93 223.56 118.69 C224.37 118.9 224.37 118.9 228.46 119.99 C229.21 120.19 229.21 120.19 233 121.19 C234.86 121.74 236.71 122.3 238.62 122.88 C243.23 124 247.56 124.69 252.25 125.25 C260 126.19 260 126.19 267 128.19 C270.3 128.78 273.62 129.31 276.94 129.81 C278.64 130.07 280.34 130.33 282.09 130.6 C287 131.19 287 131.19 295 131.19 C296.87 131.51 298.75 131.84 300.68 132.17 C312.22 134.03 323.89 133.51 335.56 133.5 C336.84 133.51 336.84 133.51 343.3 133.55 C355.83 133.55 367.86 133.23 380.19 130.88 C384 130.19 384 130.19 391.06 129.69 C396.86 129.2 401.47 127.92 407 126.19 C409.54 125.75 412.07 125.32 414.69 124.88 C423.06 123.38 430.19 120.55 438 117.19 C439.79 116.49 441.59 115.78 443.44 115.06 C448 113.19 448 113.19 452.19 111.06 C456 109.19 456 109.19 463 107.19 C465.63 105.97 468.23 104.7 470.81 103.38 C472.21 102.67 473.6 101.96 475.04 101.23 C476.34 100.55 477.65 99.88 479 99.19 C488.58 94.29 488.58 94.29 493 93.19 C493.33 92.2 493.66 91.21 494 90.19 C497.98 88.15 501.98 86.16 506 84.19 C511.41 80.79 516.07 77.29 521 73.19 C521.83 72.69 521.83 72.69 526 70.19 C526.83 69.53 526.83 69.53 531 66.19 C531.66 66.19 532.32 66.19 533 66.19 C533.33 65.2 533.66 64.21 534 63.19 C537.65 60.5 541.32 57.83 545 55.19 C546.65 53.54 548.3 51.89 550 50.19 C551.65 49.2 553.3 48.21 555 47.19 C555.99 46.36 555.99 46.36 561 42.19 C562.65 41.2 564.3 40.21 566 39.19 C567.32 38.16 568.64 37.12 570 36.06 C574 33.19 574 33.19 579 32.19 C579.66 30.87 580.32 29.55 581 28.19 C584.3 26.45 587.64 24.79 591 23.19 C591.99 22.53 591.99 22.53 597 19.19 C599.31 18.53 601.62 17.87 604 17.19 C604.99 16.86 604.99 16.86 610 15.19 C613.33 14.52 616.67 13.85 620 13.19 C620.33 12.86 620.66 12.53 621 12.19 C622.65 12.19 624.3 12.19 626 12.19 C626 82.15 626 152.11 626 224.19 C288.08 224.19 -49.84 224.19 -398 224.19 C-398 187.23 -398 150.27 -398 112.19 C-380.84 112.19 -365.27 112.54 -348.62 115.75 C-342.01 117 -335.71 117.75 -329 118.19 C-316.1 119.08 -316.1 119.08 -315 120.19 C-312.21 120.24 -309.42 120.22 -306.62 120.19 C-299.81 120.14 -293.11 120.33 -286.31 120.81 C-266.61 121.99 -266.61 121.99 -259 118.19 C-255.34 117.75 -251.67 117.34 -248 116.94 C-234.92 115.34 -223 112.23 -210.56 108 C-205 106.19 -205 106.19 -199.25 105.19 C-192.44 103.89 -187.64 101.22 -181.81 97.56 C-178 95.19 -178 95.19 -173 93.19 C-171.8 92.59 -170.61 91.99 -169.38 91.38 C-166 89.69 -162.57 88.1 -159.12 86.56 C-154 84.19 -154 84.19 -152 82.19 C-149.69 81.2 -147.38 80.21 -145 79.19 C-143.35 78.2 -141.7 77.21 -140 76.19 C-139.34 76.19 -138.68 76.19 -138 76.19 C-138 75.53 -138 74.87 -138 74.19 C-136.68 73.86 -135.36 73.53 -134 73.19 C-134 72.53 -134 71.87 -134 71.19 C-131.69 70.2 -129.38 69.21 -127 68.19 C-122.61 65.41 -118.67 62.86 -115 59.19 C-113.02 58.2 -111.04 57.21 -109 56.19 C-107.02 54.54 -105.04 52.89 -103 51.19 C-102.24 50.76 -102.24 50.76 -98.38 48.62 C-94 46.19 -94 46.19 -90 42.19 C-88.02 41.2 -86.04 40.21 -84 39.19 C-80.64 36.21 -77.31 33.21 -74 30.19 C-69.9 27.02 -66.84 25.12 -62 23.19 C-60.02 21.87 -58.04 20.55 -56 19.19 C-52.01 16.81 -48.33 14.92 -44 13.19 C-41.83 11.91 -39.67 10.63 -37.44 9.31 C-25.24 2.28 -13.9 0.05 0 0 Z " fill="#ffffff" transform="translate(398,799.8125)"/>
</svg>

