<?xml version="1.0" encoding="UTF-8"?>
<!-- Generator: visioncortex VTracer 0.6.12 -->
<svg version="1.1" xmlns="http://www.w3.org/2000/svg" width="1024" height="1024">
<path d="M0 0 C256.08 0 512.16 0 776 0 C776.24 203.69 776.24 203.69 776.29 288.54 C776.3 307.97 776.32 327.39 776.33 346.81 C776.33 348.03 776.33 348.03 776.33 354.19 C776.36 393.55 776.41 432.91 776.46 472.27 C776.52 512.63 776.55 553 776.56 593.36 C776.57 618.28 776.6 643.21 776.65 668.14 C776.68 685.21 776.69 702.27 776.68 719.34 C776.68 729.21 776.68 739.07 776.72 748.93 C776.74 757.95 776.75 766.96 776.73 775.98 C776.72 779.25 776.73 782.53 776.75 785.8 C776.77 790.23 776.76 794.65 776.74 799.07 C776.74 801.54 776.74 804 776.75 806.55 C776.5 808.35 776.25 810.15 776 812 C770.64 813.79 765.52 814.9 760 816 C758.02 816.66 756.04 817.32 754 818 C751.69 818.66 749.38 819.32 747 820 C743.97 821.96 740.97 823.96 738 826 C735.33 827.33 732.67 828.67 730 830 C729.01 830.99 728.02 831.98 727 833 C725.35 833.99 723.7 834.98 722 836 C709.48 844.35 697.61 853.44 686 863 C684.35 864.32 682.7 865.64 681 867 C679.85 868.01 678.69 869.02 677.5 870.06 C674 873 674 873 669 876 C664.43 879.02 659.89 882.08 655.38 885.19 C651 888 651 888 644 891 C643.67 891.66 643.34 892.32 643 893 C638.43 895.84 633.99 897.86 629 900 C624.76 902.27 620.55 904.6 616.35 906.94 C611.9 909.05 607.8 909.98 603 911 C601.35 911.99 599.7 912.98 598 914 C594.68 915.37 591.35 916.7 588 918 C585.65 919.01 583.3 920.02 580.88 921.06 C573.01 924.23 565.35 925.58 557 927 C555.29 927.54 553.58 928.07 551.81 928.62 C545.85 930.33 540.19 930.56 534 931 C531.3 931.49 528.6 932 525.9 932.51 C512.49 934.67 499.1 934.4 485.56 934.31 C482.98 934.32 480.4 934.32 477.74 934.32 C466.53 934.29 456.06 933.91 445 932 C442.36 932 439.72 932 437 932 C432.7 931.42 428.41 930.76 424.12 930.06 C421.9 929.7 419.68 929.34 417.38 928.97 C412 928 412 928 410 927 C407.65 926.73 405.3 926.46 402.88 926.19 C387.83 924.36 371.07 920.84 358 913 C355.35 912.11 352.68 911.28 350 910.5 C345.01 909.05 341.52 907.71 337 905 C335.74 904.44 334.48 903.89 333.19 903.31 C326.01 900.11 319.02 896.54 312 893 C310.6 892.34 309.2 891.68 307.75 891 C304 889 304 889 300 885 C297.01 883.31 294.01 881.64 291 880 C283.59 875.23 276.52 870.25 269.94 864.38 C264.89 860.05 260.15 857.46 254 855 C253.01 854.01 252.02 853.02 251 852 C249.35 851.01 247.7 850.02 246 849 C242.32 846.01 238.66 843.01 235 840 C229.32 835.62 223.54 831.91 217.38 828.25 C213.71 826.03 210.08 823.74 206.5 821.38 C201.39 818.24 196.55 816.18 191 814 C187.64 812.05 184.3 810.05 181 808 C177 806 177 806 172.94 805 C169 804 169 804 166 802 C146.47 798.74 126.67 800.79 110 812 C105 815 105 815 98 818 C89.44 822.56 89.44 822.56 87 825 C84.69 825.99 82.38 826.98 80 828 C77.41 830.09 74.9 832.26 72.44 834.5 C67.91 838.62 64.54 841.23 59 844 C57.35 845.32 55.7 846.64 54 848 C51.01 850.01 48.01 852.01 45 854 C43.76 854.93 42.52 855.86 41.25 856.81 C38 859 38 859 33 860 C32.34 861.32 31.68 862.64 31 864 C25.88 867.64 22.16 869.24 16 871 C16 871.66 16 872.32 16 873 C14.68 873.33 13.36 873.66 12 874 C12 874.66 12 875.32 12 876 C7.09 879.14 2.42 881.83 -3 884 C-3.66 884.66 -4.32 885.32 -5 886 C-8.33 887.35 -11.66 888.68 -15 890 C-17.68 891.3 -20.35 892.63 -23 894 C-24.98 894.99 -26.96 895.98 -29 897 C-30.57 897.99 -32.13 898.98 -33.75 900 C-40.5 903.86 -47.05 905.52 -54.56 907.38 C-59.57 908.64 -64.49 910.02 -69.44 911.5 C-81.21 914.97 -92.64 917.3 -104.84 918.53 C-109 919 -109 919 -114.19 920.06 C-125.89 922.34 -137.19 921.88 -149 921 C-151.96 920.98 -154.92 920.98 -157.88 921 C-160.23 921 -162.58 921 -165 921 C-165.33 920.67 -165.66 920.34 -166 920 C-168.58 919.88 -171.16 919.75 -173.81 919.62 C-186.78 918.98 -199.4 917.15 -212 914 C-223.88 913.34 -235.76 912.68 -248 912 C-248 778.02 -248 644.04 -248 506 C-243.71 505.01 -239.42 504.02 -235 503 C-231.98 501.72 -228.96 500.41 -226 499 C-225.34 499 -224.68 499 -224 499 C-223.67 497.68 -223.34 496.36 -223 495 C-219.19 492.87 -219.19 492.87 -215 491 C-213.68 490.34 -212.36 489.68 -211 489 C-210.67 488.01 -210.34 487.02 -210 486 C-209.34 485.67 -208.68 485.34 -208 485 C-207.01 482.69 -206.02 480.38 -205 478 C-204.34 478 -203.68 478 -203 478 C-202.34 476.35 -201.68 474.7 -201 473 C-199.93 471.47 -198.85 469.95 -197.75 468.38 C-192.76 461.23 -188.76 454.28 -186 446 C-183.36 441.98 -180.7 437.98 -178 434 C-177.01 432.02 -176.02 430.04 -175 428 C-174.68 427.45 -174.68 427.45 -173.06 424.69 C-170.76 420.56 -168.91 416.32 -167 412 C-166.01 410.35 -165.02 408.7 -164 407 C-162.65 404.34 -161.32 401.67 -160 399 C-159.49 398 -159.49 398 -156.94 392.94 C-152.56 384.1 -149.64 375.48 -147 366 C-145.4 360.29 -144.06 356.1 -141 351 C-140.01 348.46 -139.08 345.89 -138.19 343.31 C-137.67 341.81 -137.15 340.3 -136.61 338.75 C-136.35 337.97 -136.35 337.97 -135 334 C-134.48 332.46 -133.96 330.92 -133.42 329.34 C-131.15 322.58 -128.95 315.84 -126.94 309 C-125.09 303.29 -122.76 298.31 -120 293 C-118.41 288.24 -116.99 283.51 -115.62 278.69 C-114.27 274.01 -112.89 269.75 -110.88 265.31 C-109 261 -109 261 -107.56 254.25 C-105.6 245.13 -102.8 237.01 -98 229 C-97.69 227.45 -97.38 225.91 -97.06 224.31 C-96.71 222.89 -96.36 221.47 -96 220 C-94.68 219.34 -93.36 218.68 -92 218 C-90.94 214.35 -89.95 210.68 -89 207 C-87.4 203.3 -85.73 199.63 -84 196 C-83.18 194.19 -82.35 192.37 -81.5 190.5 C-80.68 188.69 -79.85 186.87 -79 185 C-78.24 183.29 -77.47 181.58 -76.69 179.81 C-72.68 171.14 -68.34 162.64 -64.04 154.11 C-61.19 148.46 -58.49 142.82 -56 137 C-53.68 132.32 -51.35 127.66 -49 123 C-47.93 120.83 -46.85 118.67 -45.75 116.44 C-43 111 -43 111 -40 106 C-34.9 97.27 -30.17 88.49 -25.76 79.4 C-24 76 -24 76 -21 72 C-20.34 72 -19.68 72 -19 72 C-18.89 71.47 -18.89 71.47 -18.31 68.8 C-16.65 62.72 -14.35 57.03 -12 51.19 C-11.56 50.08 -11.56 50.08 -9.31 44.48 C-7 39 -7 39 -5 36 C-4.23 33.33 -3.56 30.64 -2.94 27.94 C-2.6 26.5 -2.25 25.07 -1.9 23.59 C-0.65 15.8 -0.44 7.88 0 0 Z " fill="#000000" transform="translate(248,0)"/>
</svg>
